<svg xmlns="http://www.w3.org/2000/svg" xmlns:xlink="http://www.w3.org/1999/xlink" width="476.23" height="407.864" viewBox="0 0 476.23 407.864">
  <defs>
    <clipPath id="clip-path">
      <rect id="Rectangle_3" data-name="Rectangle 3" width="476.23" height="407.864" fill="#ed7532"/>
    </clipPath>
    <clipPath id="clip-path-2">
      <rect id="Rectangle_2" data-name="Rectangle 2" width="35.707" height="35.706" rx="15" transform="translate(3.072) rotate(4.935)" fill="#fff"/>
    </clipPath>
  </defs>
  <g id="landing" clip-path="url(#clip-path)">
    <path id="Path_1" data-name="Path 1" d="M163.783,117.236h32.358V393.1A32.962,32.962,0,0,0,229.1,426.06H476.49v.314a32.959,32.959,0,0,1-32.962,32.96H163.783a32.959,32.959,0,0,1-32.959-32.96V150.2a32.961,32.961,0,0,1,32.957-32.96Z" transform="translate(-59.577 -51.473)" fill="#f2f2f2"/>
    <path id="Path_2" data-name="Path 2" d="M94.679,93.467h318.3a13.68,13.68,0,0,1,13.681,13.682V421.887a13.68,13.68,0,0,1-13.681,13.68H94.681A13.68,13.68,0,0,1,81,421.885V107.147a13.681,13.681,0,0,1,13.677-13.68Z" transform="translate(49.568 -56.003)" fill="#f2f2f2"/>
    <path id="Path_3" data-name="Path 3" d="M392.619,99.16A26.181,26.181,0,0,1,418.8,125.341V401.523a26.181,26.181,0,0,1-26.183,26.182H214.079A127.387,127.387,0,0,1,86.694,300.324V125.341A26.181,26.181,0,0,1,112.875,99.16Z" transform="translate(50.651 -54.918)" fill="#fff"/>
    <path id="Path_4" data-name="Path 4" d="M333.257,260.927a10.245,10.245,0,0,0,12.919-8.75l48.885-14.763-.76-14.525-57.932,17.959a10.231,10.231,0,0,0-3.112,20.079Z" transform="translate(-210.254 -31.338)" fill="#ffb68c"/>
    <path id="Path_5" data-name="Path 5" d="M289.794,333.547a2.9,2.9,0,0,0,3.824-3.888c.04-.3.07-.51.109-.807l.144-.146a7.8,7.8,0,0,1,13.327,5.4c.076,6.133.745,12.513-.8,18.347a23.075,23.075,0,0,1-3.325,7.211,92.465,92.465,0,0,0,22.091-32.516,89.154,89.154,0,0,0,3.189-9.447q1.088-3.943,1.822-7.965a93.513,93.513,0,0,0-2.47-43.7,24.891,24.891,0,0,1-5.614-13.82,19,19,0,0,1,.327-5.458c.443.249,4.594-6.357,4.417-6.935,1.049-.729,2.412-.752,3.511-1.432,5.465-3.381,10.008-.588,9.94,6.957,4.34,4.927,2.568,9.5-2.526,12.543-3.24,1.936-5.043,5.589-8.1,7.826.093.321.2.639.291.962a94.074,94.074,0,0,1,3.33,18.1,39.141,39.141,0,0,1,8.929-16c4.082-4.175,9.664-6.833,14.825-9.789,6.2-3.55,13.727,2.1,11.812,8.983-.019.067-.038.133-.056.2q-.938.125-1.861.315a3.938,3.938,0,0,0-1.193,7.242l.07.04a39.028,39.028,0,0,1-3.137,5.054c-2.417,18.759-14.387,21.147-28.048,15.994-.361.034-.713.07-1.07.1a96.135,96.135,0,0,1-4.254,24.516,91.154,91.154,0,0,1-5.535,13.633l.087-.151a24.082,24.082,0,0,1,12.8-9.85c7.8-2.469,16.813-.922,24.7-2.26a4.519,4.519,0,0,1,4.79,6.655c-.031.054-.063.106-.094.16a26.585,26.585,0,0,0-3.285.223q-.936.125-1.861.315a3.938,3.938,0,0,0-1.181,7.241l.07.04c.05.03.093.056.144.085a39.216,39.216,0,0,1-10.9,7.8c-8.7,13.737-21.063,10.414-31.957,1.032h-.008a96.06,96.06,0,0,1-13,15.085l-21.4-8.574c.019-.269.048-.542.074-.807a26.239,26.239,0,0,0,6.062,2.02c-.807-2.585-1.607-5.184-2.414-7.768-.02-.05-.038-.1-.054-.155-.406-1.319-.823-2.635-1.227-3.954h0a38.287,38.287,0,0,1,4.679-8.653Z" transform="translate(-133.022 -28.654)" fill="#f2f2f2"/>
    <path id="Path_6" data-name="Path 6" d="M250.121,334.263l.245-.307C251.072,329.414,250.121,334.263,250.121,334.263Z" transform="translate(24.252 -10.542)" fill="#0c2f3d"/>
    <path id="Path_7" data-name="Path 7" d="M140.648,388.808h68.544c5.325-13.238,9.022-22.707,9.022-22.707s.9,9.275,2.179,22.707h61.968c.58-36.5,1.392-73.982,1.66-85.886l-118.944,2.649-11.831,15c-.04.251-.081.527-.132.839C152.635,324.463,146.2,357.185,140.648,388.808Z" transform="translate(121.194 -16.086)" fill="#0c2f3d"/>
    <path id="Path_8" data-name="Path 8" d="M207.11,163.326c7.267-5.334,15.2-7.7,24.059-5.96,1.513-4.583,2.925-4.583,2.925-4.583l20.058-6.624,2.885-17.623,49.42-1.673,4.491,21.991s27.623,4.952,27.623,8.533a3.8,3.8,0,0,1-1.726,3.132c-.2.158-.335.261-.318.326.03.121.555.121,2.044.121a9.211,9.211,0,0,0,4.068-1.074c1.842-.842,3.257-1.489,5.754,1.074a12.836,12.836,0,0,0,1.079.973l.071.058.073.058a34.11,34.11,0,0,1,4.772,4.568c10.269,6.984,36.165,27.927,36.165,43.026,0,0,5.765,12.793,11.673,28.993,8.824,24.191,17.955,55.962,8.614,63.963-4.921,4.216-11.474,4.005-18.144,1.744-8.522-2.885-17.223-9.12-22.938-13.755-.587-.475-1.142-.935-1.662-1.37a82.91,82.91,0,0,1-14.482-8.811l-8.7,86.507L220.79,372.087l-8.313-76.745-4.6-69.449c-7.417,3.948-16.08,7.545-24.876,11.2-11.075,4.6-22.36,9.284-31.643,14.871l-18.8,7.751-19.521,8.052-29.514,4.447,9.015-6.285v-.007l-4.506-13.088h0l-.425-1.226,41-18.286L140.99,227.8l28.2-25.468,28.383-32.418a44.682,44.682,0,0,1,9.537-6.588Zm148.34,98.812-1.3,12.932,7.458-3.359Z" transform="translate(58.459 -49.639)" fill="#7c3aed" fill-rule="evenodd"/>
    <path id="Path_9" data-name="Path 9" d="M334.444,356.843a10.519,10.519,0,0,1-2.145,3.736l-240.718.511a10.527,10.527,0,0,1-2.145-3.735c-8.419-21.18,7.464-44.149,30.256-44.192l184.483-.35C326.937,312.769,342.852,335.691,334.444,356.843Z" transform="translate(132.186 -14.201)" fill="#fff"/>
    <path id="Path_10" data-name="Path 10" d="M91.475,361.684h.2l240.908-.514.145-.13a10.758,10.758,0,0,0,2.279-3.927,32.028,32.028,0,0,0-3.374-30.26,32.994,32.994,0,0,0-27.307-14.471h-.064l-184.483.35A33.118,33.118,0,0,0,92.4,327.308a32.144,32.144,0,0,0-3.354,30.318,10.757,10.757,0,0,0,2.279,3.927ZM316.3,360.1l-204.1-.618c-14.407-.044-25.006-13.951-20.736-27.712a14.735,14.735,0,0,1,1.788-3.888,32.1,32.1,0,0,1,26.534-14.126l184.483-.35h.062a19.776,19.776,0,0,1,6.822,1.458A32.238,32.238,0,0,1,331.7,343.432c.008.162.017.324.025.487A15.389,15.389,0,0,1,317.15,360.08C316.865,360.094,316.584,360.1,316.3,360.1Z" transform="translate(132.096 -14.283)" fill="#e6e6e6"/>
    <path id="Path_11" data-name="Path 11" d="M243.013,330.756a1.513,1.513,0,0,1-1.187.567H158.783a1.528,1.528,0,0,1-1.494-1.841l1.289-6.123a1.532,1.532,0,0,1,.951-1.111,1.485,1.485,0,0,1,.543-.1h80.47a1.485,1.485,0,0,1,.543.1,1.532,1.532,0,0,1,.951,1.111l1.289,6.123a1.536,1.536,0,0,1-.312,1.274Z" transform="translate(142.084 -12.422)" fill="#0c2f3d"/>
    <path id="Path_12" data-name="Path 12" d="M281.99,214.985v95.79a4.608,4.608,0,0,1-4.6,4.6H135.44a4.607,4.607,0,0,1-4.6-4.6v-95.79a4.61,4.61,0,0,1,4.6-4.6H277.386a4.608,4.608,0,0,1,4.6,4.6Z" transform="translate(134.902 -33.721)" fill="#0c2f3d"/>
    <path id="Path_13" data-name="Path 13" d="M216.154,283.07v52.464H179.4V283.07a1.766,1.766,0,0,1,1.243-1.687,1.588,1.588,0,0,1,.527-.082h33.205a1.772,1.772,0,0,1,1.775,1.768ZM201.806,301.1a3.924,3.924,0,1,0-7.848,0v6.087a3.924,3.924,0,1,0,7.847,0Z" transform="translate(142.923 -20.206)" fill="#0c2f3d"/>
    <path id="Path_14" data-name="Path 14" d="M202.543,135.454a31.985,31.985,0,1,1,31.984-31.985,31.985,31.985,0,0,1-31.984,31.985Z" transform="translate(135.079 -60.193)" fill="#fbeae1"/>
    <path id="Path_15" data-name="Path 15" d="M200.643,119.343c5.221,0,8.069-4.773,8.1-4.835a.68.68,0,0,0-1.173-.687c-.156.265-3.844,6.385-10.612,3.292a.678.678,0,0,0-.556,1.237A10.128,10.128,0,0,0,200.643,119.343Z" transform="translate(130.485 -52.185)" fill="#e6635d"/>
    <path id="Path_16" data-name="Path 16" d="M165.674,99.68c3.448,1.071,6.772,1.7,9.015-1.127s1.656-6.063,4.992-7.426c2.693-1.1,5.8-.631,8.519.394.485.18.958.383,1.42.586.26-.225.518-.439.8-.642a10.163,10.163,0,0,1,7.314-1.781A9.968,9.968,0,0,0,193.3,93.91c.924.462,1.917.807,2.806,1.318,12.214,7.023,25.8,9.851,24.69-1.871-3.7,9.736-.823,13.207,4.6,22.1l.213.518c-.541-2.332,3.262-2.443,6.548-1.645,2.426.589.856,6.246-2.254,10.143C236.859,114,247.272,98.019,238.268,90c-1.329-1.183-2.162-2.851-2.4-7.122-.142-2.532-4.452-3.167-6.728-2.04a21.662,21.662,0,0,0-12.508-17.8c-6.965-3.1-14.046,1.668-21.614,2.592-4.2.513-7.383,2.2-7.551,7.561-.112,3.568-5.487,4.846-9,5.477-2.232.395-4.744.158-6.526,1.566-2.062,1.634-2.085,4.508-2.073,7.268a10.147,10.147,0,0,1,5.712,1.566,9.934,9.934,0,0,0-5.77,2.028.576.576,0,0,0-.089.068C169.111,95.8,169.359,96.784,165.674,99.68Z" transform="translate(133.652 -62)" fill="#0c2f3d"/>
    <path id="Path_17" data-name="Path 17" d="M333.652,228.072c-12.5-3.884-25.877.317-38.444-3.268a26.053,26.053,0,0,1-8.077-3.793,50.118,50.118,0,0,1-5.878-5.231c-3.78-3.738-7.885-7.665-13.565-7.622-7.478.057-13.221,5.614-18.206,10.519-.7.693-1.791-.392-1.085-1.086,4.58-4.508,9.529-9.263,16.05-10.608a14.808,14.808,0,0,1,8.756.727,22.848,22.848,0,0,1,6.5,4.449c2.008,1.841,3.86,3.846,5.9,5.658a24.531,24.531,0,0,0,7.23,4.565c5.761,2.294,12.081,2.57,18.207,2.5,7.691-.085,15.567-.607,23.019,1.707C335,226.885,334.6,228.367,333.652,228.072Z" transform="translate(-57.394 -34.437)" fill="#342c44"/>
    <path id="Path_18" data-name="Path 18" d="M323.258,208.242l-3.842,6.772-1.86,3.276c-.33.583-.669,1.161-.992,1.748-.2.361-.629,1.012-.217,1.354a2,2,0,0,0,1.168.182c.677,0,1.355-.014,2.032-.02l3.81-.039,7.874-.08a.768.768,0,0,1,0,1.535c-4.572.046-9.145.143-13.717.139a3.275,3.275,0,0,1-2.243-.614,2.135,2.135,0,0,1-.407-2.46,23.408,23.408,0,0,1,1.551-2.845l1.674-2.95,3.842-6.772a.768.768,0,0,1,1.325.775Z" transform="translate(-133.91 -34.346)" fill="#342c44"/>
    <path id="Path_19" data-name="Path 19" d="M416.339,219.911c-7.77-10.533-21.039-15.074-29.039-25.411a26.072,26.072,0,0,1-4.261-7.84,50.28,50.28,0,0,1-1.637-7.7c-.831-5.252-1.813-10.846-6.415-14.176-6.059-4.384-13.976-3.309-20.9-2.31a.767.767,0,1,1-.232-1.516c6.361-.919,13.165-1.818,19.216.96A14.817,14.817,0,0,1,379.7,167.7a22.842,22.842,0,0,1,2.606,7.439c.527,2.673.832,5.385,1.4,8.051a24.528,24.528,0,0,0,3.123,7.96c3.282,5.261,8.21,9.227,13.186,12.8,6.247,4.488,12.9,8.732,17.534,15.011C418.133,219.752,416.926,220.708,416.339,219.911Z" transform="translate(-265.584 -43.312)" fill="#342c44"/>
    <path id="Path_20" data-name="Path 20" d="M417.9,153.964l-7.108,3.181-3.438,1.538c-.611.274-1.227.538-1.835.821-.373.174-1.1.442-.976.962.089.354.563.638.833.838.545.4,1.1.792,1.649,1.187l3.093,2.225,6.391,4.6a.768.768,0,0,1-.908,1.237c-3.711-2.67-7.453-5.3-11.133-8.014a3.276,3.276,0,0,1-1.444-1.823,2.132,2.132,0,0,1,1.129-2.223,23.337,23.337,0,0,1,2.936-1.374l3.1-1.386,7.107-3.18a.764.764,0,0,1,.609,1.4Z" transform="translate(-325.475 -44.753)" fill="#342c44"/>
    <path id="Path_21" data-name="Path 21" d="M433.563,161.031h35.312a1.469,1.469,0,0,0,.009-2.938H433.563a1.469,1.469,0,0,0-1.045,2.507,1.446,1.446,0,0,0,.476.32,1.479,1.479,0,0,0,.564.114Z" transform="translate(-412.119 -43.688)" fill="#7c3aed"/>
    <path id="Path_22" data-name="Path 22" d="M439.1,249.394c-7.77,10.532-21.036,15.074-29.038,25.406a26.056,26.056,0,0,0-4.26,7.84,50.247,50.247,0,0,0-1.638,7.7c-.831,5.252-1.812,10.846-6.414,14.175-6.06,4.384-13.977,3.31-20.9,2.311a.768.768,0,0,0-.231,1.517c6.36.918,13.164,1.818,19.215-.96a14.813,14.813,0,0,0,6.623-5.773,22.874,22.874,0,0,0,2.607-7.438c.526-2.673.831-5.386,1.4-8.051a24.546,24.546,0,0,1,3.122-7.961c3.284-5.26,8.21-9.226,13.187-12.8,6.247-4.488,12.9-8.731,17.534-15.01C440.892,249.552,439.69,248.6,439.1,249.394Z" transform="translate(-315.458 -26.344)" fill="#342c44"/>
    <path id="Path_23" data-name="Path 23" d="M440.644,308.62l-7.108-3.18L430.1,303.9c-.612-.274-1.227-.538-1.835-.822-.373-.173-1.106-.442-.976-.961.088-.354.562-.639.833-.839.544-.4,1.1-.791,1.649-1.187l3.093-2.225,6.391-4.6a.767.767,0,1,0-.908-1.236c-3.711,2.67-7.453,5.3-11.134,8.013a3.279,3.279,0,0,0-1.443,1.823,2.135,2.135,0,0,0,1.129,2.224,23.343,23.343,0,0,0,2.936,1.374l3.1,1.385,7.107,3.181a.768.768,0,1,0,.61-1.41Z" transform="translate(-375.332 -18.187)" fill="#342c44"/>
    <path id="Path_24" data-name="Path 24" d="M445.475,304.443h35.312a1.472,1.472,0,0,0,.013-2.943H445.476a1.472,1.472,0,0,0-.013,2.943Z" transform="translate(-438.212 -16.357)" fill="#7c3aed"/>
    <path id="Path_25" data-name="Path 25" d="M97.044,257.111a10.245,10.245,0,0,0,15.164,3.675l36.777,17.5,2.465-10.306L114,245.909a10.231,10.231,0,0,0-16.953,11.2Z" transform="translate(306.975 -27.642)" fill="#ffb68c"/>
    <path id="Path_26" data-name="Path 26" d="M310.588,204.35c-4.2-15.3-3.5-30.374,3.7-45.141a3.322,3.322,0,0,1,1.364-2.363,4.4,4.4,0,0,1,2.893-.838l39.331,2.419a4.231,4.231,0,0,1,2.728,1.183,3.174,3.174,0,0,1,.967,2.507l-3.7,45.141a3.319,3.319,0,0,1-1.366,2.363,4.392,4.392,0,0,1-2.892.838l-39.332-2.419a4.231,4.231,0,0,1-2.726-1.183A3.174,3.174,0,0,1,310.588,204.35Z" transform="translate(-155.612 -44.086)" fill="#f2f2f2"/>
    <path id="Path_27" data-name="Path 27" d="M356.458,190.535c3.447-7.6,1.243-18.056-2.435-29.255a3.124,3.124,0,0,0-1.31-2.231,4.267,4.267,0,0,0-2.776-.791l-34.636,2.1a4.1,4.1,0,0,0-2.617,1.117,2.976,2.976,0,0,0-.927,2.367l3.373,40.489a3.124,3.124,0,0,0,1.31,2.231,4.267,4.267,0,0,0,2.776.791l21.457-1.3a18.249,18.249,0,0,0,11.658-4.977A13.242,13.242,0,0,0,356.458,190.535Z" transform="translate(-156.675 -43.657)" fill="#fff"/>
    <path id="Path_28" data-name="Path 28" d="M315.768,186.988l4.309-2.218c.7,1.469,1.345,2.717,3.086,2.836,1.669.115,2.767-.466,2.942-3.005l1.188-17.272,5.079.349-1.193,17.344c-.362,5.261-3.611,7.443-8.11,7.134a7.9,7.9,0,0,1-7.3-5.168m18,.692,4.3-2.11a5.542,5.542,0,0,0,4.8,3.428c2.1.145,3.519-.814,3.619-2.267.12-1.741-1.217-2.453-3.469-3.628l-1.232-.632c-3.557-1.812-5.853-3.938-5.568-8.076.262-3.81,3.363-6.514,7.9-6.2a7.521,7.521,0,0,1,6.941,4.561l-4.13,2.268c-.763-1.62-1.664-2.3-3.116-2.4a2.216,2.216,0,0,0-2.581,2.01c-.1,1.524.8,2.206,2.909,3.3l1.232.632c4.191,2.147,6.492,4.2,6.2,8.446-.314,4.573-4.079,6.829-8.9,6.5-4.717-.325-7.61-2.784-8.9-5.825" transform="translate(-154.878 -41.927)" fill="#ffd350"/>
    <path id="Path_29" data-name="Path 29" d="M426.588,157.35c-4.2-15.3-3.5-30.374,3.7-45.141a3.321,3.321,0,0,1,1.364-2.363,4.4,4.4,0,0,1,2.893-.838l39.331,2.419a4.231,4.231,0,0,1,2.728,1.183,3.174,3.174,0,0,1,.967,2.507l-3.7,45.141a3.319,3.319,0,0,1-1.366,2.363,4.392,4.392,0,0,1-2.892.838l-39.332-2.419a4.231,4.231,0,0,1-2.726-1.183A3.174,3.174,0,0,1,426.588,157.35Z" transform="translate(-421.624 -53.043)" fill="#f2f2f2"/>
    <path id="Path_30" data-name="Path 30" d="M472.458,143.535c3.447-7.6,1.243-18.056-2.435-29.255a3.125,3.125,0,0,0-1.31-2.231,4.267,4.267,0,0,0-2.776-.791l-34.636,2.1a4.1,4.1,0,0,0-2.617,1.117,2.976,2.976,0,0,0-.927,2.367l3.373,40.489a3.125,3.125,0,0,0,1.31,2.231,4.267,4.267,0,0,0,2.776.791l21.457-1.3a18.249,18.249,0,0,0,11.658-4.977,13.242,13.242,0,0,0,4.127-10.541Z" transform="translate(-410.782 -52.614)" fill="#fff"/>
    <path id="Path_31" data-name="Path 31" d="M462.017,129.312q-.554-.239-1.118-.452c.086-.258.167-.516.239-.767,1.2-4.143.9-7.582-.944-8.852-1.772-1.219-4.9-.343-8.178,2.082q-.486.361-.951.743-.268-.3-.546-.592c-2.988-3.11-6.116-4.569-8.14-3.6-1.942.927-2.744,4.073-2.28,8.127.045.4.1.8.169,1.2q-.7.139-1.351.31c-3.874,1.014-6.445,2.884-6.615,5.019-.175,2.206,2.234,4.625,6.053,6.279.311.133.623.26.939.377q-.207.62-.381,1.249c-1.056,3.863-.721,7.023,1.044,8.238,1.824,1.255,5.122.376,8.463-2.106q.407-.3.8-.626.434.491.893.955c2.819,2.844,5.724,4.134,7.658,3.21,2-.954,2.885-4.249,2.4-8.384q-.057-.486-.138-.968.346-.073.679-.155c4.188-1.027,7.018-3,7.2-5.24C468.077,133.212,465.757,130.941,462.017,129.312Zm-1.67,9.8c-.2.05-.4.1-.613.14a35.6,35.6,0,0,0-1.444-4.654,35.678,35.678,0,0,0,2.086-4.307q.534.2,1.032.418c3.2,1.4,5.081,3.232,4.979,4.525-.11,1.378-2.423,2.993-6.04,3.88Zm-1.692,2.782a12.926,12.926,0,0,1-.2,4.712,3.157,3.157,0,0,1-1.342,2.118c-1.174.561-3.506-.475-5.917-2.907q-.427-.432-.83-.887a35.761,35.761,0,0,0,3.285-3.553,35.512,35.512,0,0,0,4.881-.361c.047.294.088.584.123.884Zm-15.329,5.622a3.153,3.153,0,0,1-2.505-.1c-1.071-.737-1.339-3.274-.437-6.578q.162-.586.355-1.161a35.808,35.808,0,0,0,4.742,1.075,37.2,37.2,0,0,0,2.757,4.019q-.357.3-.729.57a12.919,12.919,0,0,1-4.183,2.177ZM438.961,137.4a12.918,12.918,0,0,1-3.978-2.536,3.153,3.153,0,0,1-1.161-2.222c.1-1.3,2.167-2.8,5.48-3.665q.6-.159,1.256-.288a36.7,36.7,0,0,0,1.379,4.634,37.222,37.222,0,0,0-2.12,4.422q-.432-.159-.856-.343Zm2.653-11.582c-.4-3.473.251-6.017,1.422-6.576,1.245-.6,3.8.6,6.382,3.282.169.176.333.355.5.536a36.568,36.568,0,0,0-3.331,3.512,37.169,37.169,0,0,0-4.81.362q-.1-.554-.163-1.114Zm15.057,5.012q-.45-.943-.942-1.867c1.125.235,2.2.512,3.2.826a32.494,32.494,0,0,1-1.383,2.975q-.416-.974-.875-1.931Zm-5.779-6.6a32.56,32.56,0,0,1,1.894,2.7q-2.1-.268-4.208-.336c.765-.856,1.542-1.646,2.314-2.36Zm-6.789,5.61q-.6.868-1.151,1.762c-.36-1.086-.656-2.149-.887-3.172,1.035-.146,2.132-.246,3.273-.3q-.638.847-1.238,1.714Zm.4,9.179a32.883,32.883,0,0,1-3.24-.788c.394-.991.866-2.014,1.4-3.053q.409.972.863,1.923.474.983.98,1.923Zm4.878,4.73c-.66-.835-1.31-1.753-1.938-2.734q1.02.121,2.08.206c.725.057,1.444.1,2.153.123a32.326,32.326,0,0,1-2.292,2.41Zm7.9-7.465a32.555,32.555,0,0,1,.947,3.228,32.383,32.383,0,0,1-3.367.3q.636-.85,1.237-1.725t1.185-1.8Zm-2.441.941q-.92,1.341-1.926,2.62-1.638-.014-3.271-.145c-1.107-.088-2.182-.208-3.215-.357q-.816-1.422-1.522-2.9t-1.291-2.99q.818-1.407,1.742-2.75h0q.923-1.341,1.945-2.611c1.064,0,2.154.049,3.251.136s2.186.217,3.238.381q.8,1.411,1.5,2.875t1.308,2.979q-.827,1.416-1.756,2.767Zm4.49-16.729c1.138.782,1.381,3.592.343,7.168-.066.229-.138.461-.215.7a36.461,36.461,0,0,0-4.7-1.13,35.6,35.6,0,0,0-2.711-4c.287-.236.58-.466.879-.686,2.807-2.077,5.336-2.785,6.4-2.048Zm-8.973,10.265a3.189,3.189,0,1,1-3.431,2.926A3.189,3.189,0,0,1,450.357,130.761Z" transform="translate(-420.044 -51.409)" fill="#00d8ff"/>
    <path id="Path_32" data-name="Path 32" d="M436.588,298.35c-4.2-15.3-3.5-30.374,3.7-45.141a3.322,3.322,0,0,1,1.364-2.363,4.4,4.4,0,0,1,2.893-.838l39.331,2.419a4.231,4.231,0,0,1,2.728,1.183,3.174,3.174,0,0,1,.967,2.507l-3.7,45.141a3.319,3.319,0,0,1-1.366,2.363,4.392,4.392,0,0,1-2.892.838l-39.332-2.419a4.231,4.231,0,0,1-2.726-1.183,3.174,3.174,0,0,1-.967-2.507Z" transform="translate(-419.719 -26.172)" fill="#f2f2f2"/>
    <path id="Path_33" data-name="Path 33" d="M482.458,284.535c3.447-7.6,1.243-18.056-2.435-29.255a3.125,3.125,0,0,0-1.31-2.231,4.267,4.267,0,0,0-2.776-.791l-34.636,2.1a4.1,4.1,0,0,0-2.617,1.117,2.976,2.976,0,0,0-.927,2.367l3.373,40.489a3.125,3.125,0,0,0,1.31,2.231,4.267,4.267,0,0,0,2.776.791l21.457-1.3a18.248,18.248,0,0,0,11.658-4.977A13.242,13.242,0,0,0,482.458,284.535Z" transform="translate(-432.688 -25.743)" fill="#fff"/>
    <g id="Group_1" data-name="Group 1" transform="translate(21.747 231.283)" clip-path="url(#clip-path-2)">
      <rect id="Rectangle_1" data-name="Rectangle 1" width="35.707" height="35.706" rx="15" transform="translate(3.072) rotate(4.935)"/>
      <path id="Path_34" data-name="Path 34" d="M461.664,247.17c-.129,0-.538.006-.906,0a29.842,29.842,0,0,0-22.377,10.441,29.477,29.477,0,0,0-6.358,12.5,35.307,35.307,0,0,0-.749,8.638,29.885,29.885,0,0,0,18.207,25.715,31.474,31.474,0,0,0,6.149,1.841,54.668,54.668,0,0,0,5.681.493,30.054,30.054,0,0,0,10.955-2.2c.533-.217.638-.277.573-.342-.043-.039-1.964-3.143-4.267-6.893l-4.187-6.816-5.18-9.308c-2.85-5.118-5.2-9.3-5.221-9.307s-.385,3.9-.81,8.666c-.742,8.352-.776,8.688-.9,8.875a1.059,1.059,0,0,1-.556.485c-.194.076-.357.08-1.233,0l-1-.087-.252-.192a1.085,1.085,0,0,1-.351-.456l-.1-.271,1.02-11.621,1.025-11.626.2-.211a1.6,1.6,0,0,1,.461-.317c.248-.1.341-.1,1.344-.012,1.182.1,1.375.167,1.654.529.079.1,2.876,5.225,6.22,11.4q5.077,9.369,10.163,18.734l4.079,7.52.251-.136a30.556,30.556,0,0,0,6.556-4.816,29.62,29.62,0,0,0,8.294-14.552,35.161,35.161,0,0,0,.749-8.638A29.886,29.886,0,0,0,472.589,249.5a31.264,31.264,0,0,0-6.061-1.828c-.552-.106-4.379-.5-4.863-.5Zm10.584,18.986a1.182,1.182,0,0,1,.526.735c.033.155-.235,3.379-.876,10.641l-.92,10.42-1.594-2.976-1.6-2.976.657-7.576c.424-4.9.686-7.649.732-7.78a1.186,1.186,0,0,1,.638-.68c.248-.1.336-.106,1.245-.027C471.916,266.011,472.066,266.036,472.248,266.156Z" transform="translate(-441.996 -257.994)" fill="#fff"/>
    </g>
    <path id="Path_35" data-name="Path 35" d="M199.9,263.955a2.507,2.507,0,0,1-3.023.344,3.823,3.823,0,0,0-3.179,0c-1.413.608-2.159.431-3-.344-4.789-4.935-4.081-12.451,1.355-12.726,1.324.069,2.247.726,3.022.785,1.158-.235,2.267-.912,3.5-.824a4.235,4.235,0,0,1,3.336,1.767,3.882,3.882,0,0,0,.471,7,9.984,9.984,0,0,1-2.492,4.013Zm-4.925-12.784A4.018,4.018,0,0,1,198.644,247c.284,2.531-2.3,4.416-3.67,4.171Z" transform="translate(147.05 -26.743)" fill="#f2f2f2"/>
  </g>
</svg>
